STARTFONT 2.1
FONT tvsys11b
SIZE 20 72 72
FONTBOUNDINGBOX 11 14 0 0
COMMENT "Generated by fontforge, http://fontforge.sourceforge.net"
STARTPROPERTIES 8
POINT_SIZE 200
WEIGHT 10
RESOLUTION 99
RESOLUTION_X 72
RESOLUTION_Y 72
X_HEIGHT 14
QUAD_WIDTH 10
_XMBDFED_INFO "Edited with xmbdfed 4.4."
ENDPROPERTIES
CHARS 256
STARTCHAR char0
ENCODING 0
SWIDTH 450 0
DWIDTH 9 0
BBX 0 0 0 0
BITMAP
ENDCHAR
STARTCHAR char1
ENCODING 1
SWIDTH 450 0
DWIDTH 9 0
BBX 9 10 0 3
BITMAP
1C80
3780
6300
6700
6F00
7B00
7300
6300
F600
9C00
ENDCHAR
STARTCHAR char2
ENCODING 2
SWIDTH 450 0
DWIDTH 9 0
BBX 7 10 1 3
BITMAP
38
6C
C6
C6
CE
D6
E6
C6
6C
38
ENDCHAR
STARTCHAR char3
ENCODING 3
SWIDTH 450 0
DWIDTH 9 0
BBX 7 10 1 3
BITMAP
38
6C
C6
C6
D6
D6
C6
C6
6C
38
ENDCHAR
STARTCHAR char4
ENCODING 4
SWIDTH 450 0
DWIDTH 9 0
BBX 7 10 1 3
BITMAP
38
6C
C6
C6
C6
CE
D6
E6
6C
38
ENDCHAR
STARTCHAR char5
ENCODING 5
SWIDTH 450 0
DWIDTH 9 0
BBX 7 10 1 3
BITMAP
38
6C
C6
CE
DE
F6
E6
C6
6C
38
ENDCHAR
STARTCHAR char6
ENCODING 6
SWIDTH 450 0
DWIDTH 9 0
BBX 5 10 2 3
BITMAP
70
D8
D8
D8
D8
D8
D8
D8
D8
70
ENDCHAR
STARTCHAR char7
ENCODING 7
SWIDTH 450 0
DWIDTH 9 0
BBX 8 8 1 3
BITMAP
3C
7E
FF
FF
FF
FF
7E
3C
ENDCHAR
STARTCHAR char8
ENCODING 8
SWIDTH 450 0
DWIDTH 9 0
BBX 7 10 1 3
BITMAP
38
6C
C6
C6
C6
C6
C6
C6
6C
38
ENDCHAR
STARTCHAR char9
ENCODING 9
SWIDTH 450 0
DWIDTH 9 0
BBX 8 8 1 3
BITMAP
3C
42
81
81
81
81
42
3C
ENDCHAR
STARTCHAR char10
ENCODING 10
SWIDTH 450 0
DWIDTH 9 0
BBX 0 0 0 0
BITMAP
ENDCHAR
STARTCHAR char11
ENCODING 11
SWIDTH 450 0
DWIDTH 9 0
BBX 7 10 1 3
BITMAP
7C
C6
C6
C6
C6
C6
C6
C6
C6
7C
ENDCHAR
STARTCHAR char12
ENCODING 12
SWIDTH 450 0
DWIDTH 9 0
BBX 7 10 1 3
BITMAP
FE
C6
C6
C6
C6
C6
C6
C6
C6
FE
ENDCHAR
STARTCHAR char13
ENCODING 13
SWIDTH 450 0
DWIDTH 9 0
BBX 9 10 0 3
BITMAP
7F00
C180
C180
C180
C180
C180
C180
C180
C180
7F00
ENDCHAR
STARTCHAR char14
ENCODING 14
SWIDTH 450 0
DWIDTH 9 0
BBX 7 10 1 3
BITMAP
38
6C
CE
CE
D6
D6
E6
E6
6C
38
ENDCHAR
STARTCHAR char15
ENCODING 15
SWIDTH 450 0
DWIDTH 9 0
BBX 9 12 0 2
BITMAP
FF80
FF80
FF80
FF80
FF80
FF80
FF80
FF80
FF80
FF80
FF80
FF80
ENDCHAR
STARTCHAR char16
ENCODING 16
SWIDTH 450 0
DWIDTH 9 0
BBX 7 9 0 3
BITMAP
80
C0
E0
F8
FE
F8
E0
C0
80
ENDCHAR
STARTCHAR char17
ENCODING 17
SWIDTH 450 0
DWIDTH 9 0
BBX 7 9 0 3
BITMAP
02
06
0E
3E
FE
3E
0E
06
02
ENDCHAR
STARTCHAR char18
ENCODING 18
SWIDTH 450 0
DWIDTH 9 0
BBX 6 9 1 3
BITMAP
30
78
FC
30
30
30
FC
78
30
ENDCHAR
STARTCHAR char19
ENCODING 19
SWIDTH 450 0
DWIDTH 9 0
BBX 6 9 1 3
BITMAP
CC
CC
CC
CC
CC
CC
00
CC
CC
ENDCHAR
STARTCHAR char20
ENCODING 20
SWIDTH 450 0
DWIDTH 9 0
BBX 2 5 5 7
BITMAP
80
00
00
00
C0
ENDCHAR
STARTCHAR char21
ENCODING 21
SWIDTH 450 0
DWIDTH 9 0
BBX 9 12 0 2
BITMAP
FF80
FF80
FF80
FF80
FF80
FF80
FF80
FF80
FF80
FF80
FF80
FF80
ENDCHAR
STARTCHAR char22
ENCODING 22
SWIDTH 450 0
DWIDTH 9 0
BBX 7 3 0 3
BITMAP
FE
FE
FE
ENDCHAR
STARTCHAR char23
ENCODING 23
SWIDTH 450 0
DWIDTH 9 0
BBX 6 10 1 2
BITMAP
30
78
FC
30
30
30
FC
78
30
FC
ENDCHAR
STARTCHAR char24
ENCODING 24
SWIDTH 450 0
DWIDTH 9 0
BBX 7 10 1 3
BITMAP
10
38
54
92
10
10
10
10
10
10
ENDCHAR
STARTCHAR char25
ENCODING 25
SWIDTH 450 0
DWIDTH 9 0
BBX 7 10 1 3
BITMAP
10
10
10
10
10
10
92
54
38
10
ENDCHAR
STARTCHAR char26
ENCODING 26
SWIDTH 450 0
DWIDTH 9 0
BBX 7 7 1 4
BITMAP
10
08
04
FE
04
08
10
ENDCHAR
STARTCHAR char27
ENCODING 27
SWIDTH 450 0
DWIDTH 9 0
BBX 7 7 1 4
BITMAP
10
20
40
FE
40
20
10
ENDCHAR
STARTCHAR char28
ENCODING 28
SWIDTH 450 0
DWIDTH 9 0
BBX 7 4 0 5
BITMAP
C0
C0
C0
FE
ENDCHAR
STARTCHAR char29
ENCODING 29
SWIDTH 450 0
DWIDTH 9 0
BBX 7 5 0 5
BITMAP
28
6C
FE
6C
28
ENDCHAR
STARTCHAR char30
ENCODING 30
SWIDTH 450 0
DWIDTH 9 0
BBX 7 7 1 4
BITMAP
10
38
38
7C
7C
FE
FE
ENDCHAR
STARTCHAR char31
ENCODING 31
SWIDTH 450 0
DWIDTH 9 0
BBX 7 7 0 4
BITMAP
FE
FE
7C
7C
38
38
10
ENDCHAR
STARTCHAR char32
ENCODING 32
SWIDTH 450 0
DWIDTH 9 0
BBX 0 0 0 0
BITMAP
ENDCHAR
STARTCHAR char33
ENCODING 33
SWIDTH 450 0
DWIDTH 9 0
BBX 4 9 2 3
BITMAP
60
F0
F0
F0
60
60
00
60
60
ENDCHAR
STARTCHAR char34
ENCODING 34
SWIDTH 450 0
DWIDTH 9 0
BBX 6 4 1 9
BITMAP
CC
CC
CC
48
ENDCHAR
STARTCHAR char35
ENCODING 35
SWIDTH 450 0
DWIDTH 9 0
BBX 7 9 0 3
BITMAP
6C
6C
FE
6C
6C
6C
FE
6C
6C
ENDCHAR
STARTCHAR char36
ENCODING 36
SWIDTH 450 0
DWIDTH 9 0
BBX 7 14 0 0
BITMAP
18
18
7C
C6
C2
C0
7C
06
86
C6
7C
18
18
18
ENDCHAR
STARTCHAR char37
ENCODING 37
SWIDTH 450 0
DWIDTH 9 0
BBX 7 7 0 3
BITMAP
C2
C6
0C
18
30
66
C6
ENDCHAR
STARTCHAR char38
ENCODING 38
SWIDTH 450 0
DWIDTH 9 0
BBX 7 9 0 3
BITMAP
38
6C
6C
38
76
DC
CC
CC
76
ENDCHAR
STARTCHAR char39
ENCODING 39
SWIDTH 450 0
DWIDTH 9 0
BBX 3 4 1 9
BITMAP
60
60
60
C0
ENDCHAR
STARTCHAR char40
ENCODING 40
SWIDTH 450 0
DWIDTH 9 0
BBX 4 9 2 3
BITMAP
30
60
C0
C0
C0
C0
C0
60
30
ENDCHAR
STARTCHAR char41
ENCODING 41
SWIDTH 450 0
DWIDTH 9 0
BBX 4 9 2 3
BITMAP
C0
60
30
30
30
30
30
60
C0
ENDCHAR
STARTCHAR char42
ENCODING 42
SWIDTH 450 0
DWIDTH 9 0
BBX 9 9 0 3
BITMAP
4900
B680
5500
6300
8080
6300
5500
B680
4900
ENDCHAR
STARTCHAR char43
ENCODING 43
SWIDTH 450 0
DWIDTH 9 0
BBX 9 9 0 3
BITMAP
1C00
1400
1400
F780
8080
F780
1400
1400
1C00
ENDCHAR
STARTCHAR char44
ENCODING 44
SWIDTH 450 0
DWIDTH 9 0
BBX 3 4 2 2
BITMAP
60
60
60
C0
ENDCHAR
STARTCHAR char45
ENCODING 45
SWIDTH 450 0
DWIDTH 9 0
BBX 6 2 1 7
BITMAP
FC
FC
ENDCHAR
STARTCHAR char46
ENCODING 46
SWIDTH 450 0
DWIDTH 9 0
BBX 2 2 3 3
BITMAP
C0
C0
ENDCHAR
STARTCHAR char47
ENCODING 47
SWIDTH 450 0
DWIDTH 9 0
BBX 6 10 2 3
BITMAP
04
0C
0C
18
18
30
30
60
60
C0
ENDCHAR
STARTCHAR char48
ENCODING 48
SWIDTH 450 0
DWIDTH 9 0
BBX 9 12 0 2
BITMAP
3E00
4100
9C80
9880
9880
9480
9480
8C80
8C80
9C80
4100
3E00
ENDCHAR
STARTCHAR char49
ENCODING 49
SWIDTH 450 0
DWIDTH 9 0
BBX 8 12 0 2
BITMAP
1C
24
44
84
E4
24
24
24
24
E7
81
FF
ENDCHAR
STARTCHAR char50
ENCODING 50
SWIDTH 450 0
DWIDTH 9 0
BBX 9 12 0 2
BITMAP
3E00
4100
9C80
9480
F480
0900
1200
2400
4B80
9E80
8080
FF80
ENDCHAR
STARTCHAR char51
ENCODING 51
SWIDTH 450 0
DWIDTH 9 0
BBX 9 12 0 2
BITMAP
3E00
4100
9C80
9480
FC80
2100
1900
FC80
9480
9C80
4100
3E00
ENDCHAR
STARTCHAR char52
ENCODING 52
SWIDTH 450 0
DWIDTH 9 0
BBX 9 12 0 2
BITMAP
0380
0480
0880
1080
2480
4C80
9C80
8080
FC80
0480
0480
0780
ENDCHAR
STARTCHAR char53
ENCODING 53
SWIDTH 450 0
DWIDTH 9 0
BBX 9 12 0 2
BITMAP
FF80
8080
9F80
9E00
8100
FC80
0480
F480
9480
9C80
4100
3E00
ENDCHAR
STARTCHAR char54
ENCODING 54
SWIDTH 450 0
DWIDTH 9 0
BBX 9 12 0 2
BITMAP
3E00
4100
9C80
9700
9E00
8100
9C80
9480
9480
9C80
4100
3E00
ENDCHAR
STARTCHAR char55
ENCODING 55
SWIDTH 450 0
DWIDTH 9 0
BBX 9 12 0 2
BITMAP
FF80
8080
BC80
A480
E880
0900
1200
1200
2400
2400
2400
3C00
ENDCHAR
STARTCHAR char56
ENCODING 56
SWIDTH 450 0
DWIDTH 9 0
BBX 9 12 0 2
BITMAP
3E00
4100
9C80
9480
9C80
4100
9C80
9480
9480
9C80
4100
3E00
ENDCHAR
STARTCHAR char57
ENCODING 57
SWIDTH 450 0
DWIDTH 9 0
BBX 9 12 0 2
BITMAP
3E00
4100
9C80
9480
9480
9C80
4080
3C80
7480
9C80
4100
3E00
ENDCHAR
STARTCHAR char58
ENCODING 58
SWIDTH 450 0
DWIDTH 9 0
BBX 2 7 3 3
BITMAP
C0
C0
00
00
00
C0
C0
ENDCHAR
STARTCHAR char59
ENCODING 59
SWIDTH 450 0
DWIDTH 9 0
BBX 3 8 2 3
BITMAP
60
60
00
00
00
60
60
C0
ENDCHAR
STARTCHAR char60
ENCODING 60
SWIDTH 450 0
DWIDTH 9 0
BBX 6 9 1 3
BITMAP
0C
18
30
60
C0
60
30
18
0C
ENDCHAR
STARTCHAR char61
ENCODING 61
SWIDTH 450 0
DWIDTH 9 0
BBX 6 4 1 5
BITMAP
FC
00
00
FC
ENDCHAR
STARTCHAR char62
ENCODING 62
SWIDTH 450 0
DWIDTH 9 0
BBX 6 9 1 3
BITMAP
C0
60
30
18
0C
18
30
60
C0
ENDCHAR
STARTCHAR char63
ENCODING 63
SWIDTH 450 0
DWIDTH 9 0
BBX 7 9 0 3
BITMAP
7C
C6
C6
0C
18
18
00
18
18
ENDCHAR
STARTCHAR char64
ENCODING 64
SWIDTH 450 0
DWIDTH 9 0
BBX 0 0 0 0
BITMAP
ENDCHAR
STARTCHAR char65
ENCODING 65
SWIDTH 450 0
DWIDTH 9 0
BBX 9 12 0 2
BITMAP
0800
1400
2200
2200
4900
4900
4900
9C80
8080
9C80
9480
F780
ENDCHAR
STARTCHAR char66
ENCODING 66
SWIDTH 450 0
DWIDTH 9 0
BBX 9 12 0 2
BITMAP
FC00
8200
9900
9900
9900
8200
9900
9480
9480
9C80
8100
FE00
ENDCHAR
STARTCHAR char67
ENCODING 67
SWIDTH 450 0
DWIDTH 9 0
BBX 9 12 0 2
BITMAP
3E00
4100
9C80
9480
9780
9000
9000
9780
9480
9C80
4100
3E00
ENDCHAR
STARTCHAR char68
ENCODING 68
SWIDTH 450 0
DWIDTH 9 0
BBX 9 12 0 2
BITMAP
FC00
8200
9900
9480
9480
9480
9480
9480
9480
9900
8200
FC00
ENDCHAR
STARTCHAR char69
ENCODING 69
SWIDTH 450 0
DWIDTH 9 0
BBX 9 12 0 2
BITMAP
FF80
8080
9F80
9000
9F00
8100
9F00
9000
9000
9F80
8080
FF80
ENDCHAR
STARTCHAR char70
ENCODING 70
SWIDTH 450 0
DWIDTH 9 0
BBX 9 12 0 2
BITMAP
FF80
8080
9F80
9000
9F00
8100
9F00
9000
9000
9000
9000
F000
ENDCHAR
STARTCHAR char71
ENCODING 71
SWIDTH 450 0
DWIDTH 9 0
BBX 9 12 0 2
BITMAP
3E00
4100
9C80
9480
9300
9780
9880
9480
9480
9880
4280
3D80
ENDCHAR
STARTCHAR char72
ENCODING 72
SWIDTH 450 0
DWIDTH 9 0
BBX 9 12 0 2
BITMAP
F780
9480
9480
9480
9C80
8080
9C80
9480
9480
9480
9480
F780
ENDCHAR
STARTCHAR char73
ENCODING 73
SWIDTH 450 0
DWIDTH 9 0
BBX 8 12 0 2
BITMAP
FF
81
E7
24
24
24
24
24
24
E7
81
FF
ENDCHAR
STARTCHAR char74
ENCODING 74
SWIDTH 450 0
DWIDTH 9 0
BBX 9 12 0 2
BITMAP
3F80
2080
3980
0900
0900
0900
0900
6900
9900
9900
4200
3C00
ENDCHAR
STARTCHAR char75
ENCODING 75
SWIDTH 450 0
DWIDTH 9 0
BBX 9 12 0 2
BITMAP
F380
9480
9900
9200
8400
8200
9200
9900
9900
9480
9480
F780
ENDCHAR
STARTCHAR char76
ENCODING 76
SWIDTH 450 0
DWIDTH 9 0
BBX 9 12 0 2
BITMAP
F000
9000
9000
9000
9000
9000
9000
9000
9000
9F80
8080
FF80
ENDCHAR
STARTCHAR char77
ENCODING 77
SWIDTH 450 0
DWIDTH 9 0
BBX 9 12 0 2
BITMAP
E380
9480
9480
8880
8880
8080
9480
9480
9C80
9480
9480
F780
ENDCHAR
STARTCHAR char78
ENCODING 78
SWIDTH 450 0
DWIDTH 9 0
BBX 9 12 0 2
BITMAP
E780
9480
9480
8C80
8480
8480
9080
9080
9880
9880
9480
F380
ENDCHAR
STARTCHAR char79
ENCODING 79
SWIDTH 450 0
DWIDTH 9 0
BBX 9 12 0 2
BITMAP
3E00
4100
9C80
9480
9480
9480
9480
9480
9480
9C80
4100
3E00
ENDCHAR
STARTCHAR char80
ENCODING 80
SWIDTH 450 0
DWIDTH 9 0
BBX 9 12 0 2
BITMAP
FE00
8100
9C80
9480
9C80
8100
9E00
9000
9000
9000
9000
F000
ENDCHAR
STARTCHAR char81
ENCODING 81
SWIDTH 450 0
DWIDTH 9 0
BBX 9 12 0 2
BITMAP
3E00
4100
9C80
9480
9480
9C80
9480
9080
9900
9880
4280
3D00
ENDCHAR
STARTCHAR char82
ENCODING 82
SWIDTH 450 0
DWIDTH 9 0
BBX 9 12 0 2
BITMAP
FE00
8100
9C80
9480
9C80
8100
9200
9900
9900
9480
9480
F780
ENDCHAR
STARTCHAR char83
ENCODING 83
SWIDTH 450 0
DWIDTH 9 0
BBX 9 12 0 2
BITMAP
3E00
4100
9C80
9480
CF00
6200
1980
6C80
9480
9C80
4100
3E00
ENDCHAR
STARTCHAR char84
ENCODING 84
SWIDTH 450 0
DWIDTH 9 0
BBX 9 12 0 2
BITMAP
FF80
8080
F380
1200
1200
1200
1200
1200
1200
1200
1200
1E00
ENDCHAR
STARTCHAR char85
ENCODING 85
SWIDTH 450 0
DWIDTH 9 0
BBX 9 12 0 2
BITMAP
6300
9480
9480
9480
9480
9480
9480
9480
9480
9C80
4100
3E00
ENDCHAR
STARTCHAR char86
ENCODING 86
SWIDTH 450 0
DWIDTH 9 0
BBX 9 12 0 2
BITMAP
6300
9480
9480
9480
4900
4900
4900
2200
2200
1400
1400
0800
ENDCHAR
STARTCHAR char87
ENCODING 87
SWIDTH 450 0
DWIDTH 9 0
BBX 9 12 0 2
BITMAP
F780
9480
9480
9C80
9480
9480
8080
8880
8880
9480
9480
E380
ENDCHAR
STARTCHAR char88
ENCODING 88
SWIDTH 450 0
DWIDTH 9 0
BBX 9 12 0 2
BITMAP
6300
9480
9C80
4900
4100
2200
2200
4900
4900
9480
9480
6300
ENDCHAR
STARTCHAR char89
ENCODING 89
SWIDTH 450 0
DWIDTH 9 0
BBX 9 12 0 2
BITMAP
6100
9280
9280
4C80
4C80
2100
1200
1200
1200
1200
1200
1E00
ENDCHAR
STARTCHAR char90
ENCODING 90
SWIDTH 450 0
DWIDTH 9 0
BBX 9 12 0 2
BITMAP
FF80
8080
FC80
0480
0900
1200
2400
4800
9000
9F80
8080
FF80
ENDCHAR
STARTCHAR char91
ENCODING 91
SWIDTH 450 0
DWIDTH 9 0
BBX 4 9 2 3
BITMAP
F0
C0
C0
C0
C0
C0
C0
C0
F0
ENDCHAR
STARTCHAR char92
ENCODING 92
SWIDTH 450 0
DWIDTH 9 0
BBX 7 9 0 3
BITMAP
80
C0
E0
70
38
1C
0E
06
02
ENDCHAR
STARTCHAR char93
ENCODING 93
SWIDTH 450 0
DWIDTH 9 0
BBX 4 9 2 3
BITMAP
F0
30
30
30
30
30
30
30
F0
ENDCHAR
STARTCHAR char94
ENCODING 94
SWIDTH 450 0
DWIDTH 9 0
BBX 7 4 0 10
BITMAP
10
38
6C
C6
ENDCHAR
STARTCHAR char95
ENCODING 95
SWIDTH 450 0
DWIDTH 9 0
BBX 8 2 0 3
BITMAP
FF
FF
ENDCHAR
STARTCHAR char96
ENCODING 96
SWIDTH 450 0
DWIDTH 9 0
BBX 3 3 2 11
BITMAP
C0
C0
60
ENDCHAR
STARTCHAR char97
ENCODING 97
SWIDTH 450 0
DWIDTH 9 0
BBX 7 6 0 3
BITMAP
78
0C
7C
CC
CC
76
ENDCHAR
STARTCHAR char98
ENCODING 98
SWIDTH 450 0
DWIDTH 9 0
BBX 7 9 0 3
BITMAP
E0
60
60
78
6C
66
66
66
7C
ENDCHAR
STARTCHAR char99
ENCODING 99
SWIDTH 450 0
DWIDTH 9 0
BBX 7 6 0 3
BITMAP
7C
C6
C0
C0
C6
7C
ENDCHAR
STARTCHAR char100
ENCODING 100
SWIDTH 450 0
DWIDTH 9 0
BBX 7 9 0 3
BITMAP
1C
0C
0C
3C
6C
CC
CC
CC
76
ENDCHAR
STARTCHAR char101
ENCODING 101
SWIDTH 450 0
DWIDTH 9 0
BBX 7 6 0 3
BITMAP
7C
C6
FE
C0
C6
7C
ENDCHAR
STARTCHAR char102
ENCODING 102
SWIDTH 450 0
DWIDTH 9 0
BBX 6 9 0 3
BITMAP
38
6C
64
60
F0
60
60
60
F0
ENDCHAR
STARTCHAR char103
ENCODING 103
SWIDTH 450 0
DWIDTH 9 0
BBX 7 9 0 0
BITMAP
76
CC
CC
CC
7C
0C
CC
78
78
ENDCHAR
STARTCHAR char104
ENCODING 104
SWIDTH 450 0
DWIDTH 9 0
BBX 7 9 0 3
BITMAP
E0
60
60
6C
76
66
66
66
E6
ENDCHAR
STARTCHAR char105
ENCODING 105
SWIDTH 450 0
DWIDTH 9 0
BBX 4 9 2 3
BITMAP
60
60
00
E0
60
60
60
60
F0
ENDCHAR
STARTCHAR char106
ENCODING 106
SWIDTH 450 0
DWIDTH 9 0
BBX 6 12 1 0
BITMAP
0C
0C
00
1C
0C
0C
0C
0C
CC
CC
78
78
ENDCHAR
STARTCHAR char107
ENCODING 107
SWIDTH 450 0
DWIDTH 9 0
BBX 7 9 0 3
BITMAP
E0
60
60
66
6C
78
6C
66
E6
ENDCHAR
STARTCHAR char108
ENCODING 108
SWIDTH 450 0
DWIDTH 9 0
BBX 4 9 2 3
BITMAP
E0
60
60
60
60
60
60
60
F0
ENDCHAR
STARTCHAR char109
ENCODING 109
SWIDTH 450 0
DWIDTH 9 0
BBX 7 6 0 3
BITMAP
EC
FE
D6
D6
D6
C6
ENDCHAR
STARTCHAR char110
ENCODING 110
SWIDTH 450 0
DWIDTH 9 0
BBX 7 6 0 3
BITMAP
DC
66
66
66
66
66
ENDCHAR
STARTCHAR char111
ENCODING 111
SWIDTH 450 0
DWIDTH 9 0
BBX 7 6 0 3
BITMAP
7C
C6
C6
C6
C6
7C
ENDCHAR
STARTCHAR char112
ENCODING 112
SWIDTH 450 0
DWIDTH 9 0
BBX 7 9 0 0
BITMAP
DC
66
66
66
7C
60
60
F0
F0
ENDCHAR
STARTCHAR char113
ENCODING 113
SWIDTH 450 0
DWIDTH 9 0
BBX 7 9 0 0
BITMAP
76
CC
CC
CC
7C
0C
0C
1E
1E
ENDCHAR
STARTCHAR char114
ENCODING 114
SWIDTH 450 0
DWIDTH 9 0
BBX 7 6 0 3
BITMAP
DC
76
66
60
60
F0
ENDCHAR
STARTCHAR char115
ENCODING 115
SWIDTH 450 0
DWIDTH 9 0
BBX 7 6 0 3
BITMAP
7C
C6
70
1C
C6
7C
ENDCHAR
STARTCHAR char116
ENCODING 116
SWIDTH 450 0
DWIDTH 9 0
BBX 7 9 0 3
BITMAP
10
30
30
FC
30
30
30
36
1C
ENDCHAR
STARTCHAR char117
ENCODING 117
SWIDTH 450 0
DWIDTH 9 0
BBX 7 6 0 3
BITMAP
CC
CC
CC
CC
CC
76
ENDCHAR
STARTCHAR char118
ENCODING 118
SWIDTH 450 0
DWIDTH 9 0
BBX 6 6 1 3
BITMAP
CC
CC
CC
CC
78
30
ENDCHAR
STARTCHAR char119
ENCODING 119
SWIDTH 450 0
DWIDTH 9 0
BBX 7 6 0 3
BITMAP
C6
C6
D6
D6
FE
6C
ENDCHAR
STARTCHAR char120
ENCODING 120
SWIDTH 450 0
DWIDTH 9 0
BBX 7 6 0 3
BITMAP
C6
6C
38
38
6C
C6
ENDCHAR
STARTCHAR char121
ENCODING 121
SWIDTH 450 0
DWIDTH 9 0
BBX 7 9 0 0
BITMAP
C6
C6
C6
C6
7E
06
0C
F8
F8
ENDCHAR
STARTCHAR char122
ENCODING 122
SWIDTH 450 0
DWIDTH 9 0
BBX 7 6 0 3
BITMAP
FE
CC
18
30
66
FE
ENDCHAR
STARTCHAR char123
ENCODING 123
SWIDTH 450 0
DWIDTH 9 0
BBX 6 9 1 3
BITMAP
1C
30
30
30
E0
30
30
30
1C
ENDCHAR
STARTCHAR char124
ENCODING 124
SWIDTH 450 0
DWIDTH 9 0
BBX 2 9 3 3
BITMAP
C0
C0
C0
C0
00
C0
C0
C0
C0
ENDCHAR
STARTCHAR char125
ENCODING 125
SWIDTH 450 0
DWIDTH 9 0
BBX 6 9 1 3
BITMAP
E0
30
30
30
1C
30
30
30
E0
ENDCHAR
STARTCHAR char126
ENCODING 126
SWIDTH 450 0
DWIDTH 9 0
BBX 7 2 0 10
BITMAP
76
DC
ENDCHAR
STARTCHAR char127
ENCODING 127
SWIDTH 450 0
DWIDTH 9 0
BBX 7 6 0 4
BITMAP
10
38
6C
C6
C6
FE
ENDCHAR
STARTCHAR char128
ENCODING 128
SWIDTH 450 0
DWIDTH 9 0
BBX 9 9 0 3
BITMAP
0800
1400
2200
2A00
4900
5500
9C80
8080
FF80
ENDCHAR
STARTCHAR char129
ENCODING 129
SWIDTH 450 0
DWIDTH 9 0
BBX 9 9 0 3
BITMAP
FF80
8080
BE80
A280
A280
A280
BE80
8080
FF80
ENDCHAR
STARTCHAR char130
ENCODING 130
SWIDTH 450 0
DWIDTH 9 0
BBX 7 7 1 4
BITMAP
FE
82
82
82
FE
82
FE
ENDCHAR
STARTCHAR char131
ENCODING 131
SWIDTH 450 0
DWIDTH 9 0
BBX 7 7 1 4
BITMAP
FE
C6
7C
6C
28
38
10
ENDCHAR
STARTCHAR char132
ENCODING 132
SWIDTH 450 0
DWIDTH 9 0
BBX 7 7 1 4
BITMAP
10
38
6C
C6
6C
38
10
ENDCHAR
STARTCHAR char133
ENCODING 133
SWIDTH 450 0
DWIDTH 9 0
BBX 7 5 1 5
BITMAP
38
6C
C6
6C
38
ENDCHAR
STARTCHAR char134
ENCODING 134
SWIDTH 450 0
DWIDTH 9 0
BBX 7 7 1 4
BITMAP
10
38
28
6C
44
C6
82
ENDCHAR
STARTCHAR char135
ENCODING 135
SWIDTH 450 0
DWIDTH 9 0
BBX 7 7 1 4
BITMAP
FE
86
8A
92
A2
C2
FE
ENDCHAR
STARTCHAR char136
ENCODING 136
SWIDTH 450 0
DWIDTH 9 0
BBX 7 7 1 4
BITMAP
FE
C6
44
6C
28
38
10
ENDCHAR
STARTCHAR char137
ENCODING 137
SWIDTH 450 0
DWIDTH 9 0
BBX 7 10 1 3
BITMAP
FE
06
06
06
7E
06
06
06
06
FE
ENDCHAR
STARTCHAR char138
ENCODING 138
SWIDTH 450 0
DWIDTH 9 0
BBX 7 7 2 4
BITMAP
C6
6C
38
10
38
6C
C6
ENDCHAR
STARTCHAR char139
ENCODING 139
SWIDTH 550 0
DWIDTH 11 0
BBX 11 11 0 2
BITMAP
1F00
2080
4040
8020
8020
8020
8020
8020
4040
2080
1F00
ENDCHAR
STARTCHAR char140
ENCODING 140
SWIDTH 500 0
DWIDTH 10 0
BBX 9 9 1 3
BITMAP
0800
1400
2200
4100
8080
4100
2200
1400
0800
ENDCHAR
STARTCHAR char141
ENCODING 141
SWIDTH 400 0
DWIDTH 8 0
BBX 7 7 1 4
BITMAP
FE
FE
FE
FE
FE
FE
FE
ENDCHAR
STARTCHAR char142
ENCODING 142
SWIDTH 450 0
DWIDTH 9 0
BBX 7 10 0 3
BITMAP
C6
C6
10
38
6C
C6
C6
FE
C6
C6
ENDCHAR
STARTCHAR char143
ENCODING 143
SWIDTH 450 0
DWIDTH 9 0
BBX 7 11 0 3
BITMAP
38
6C
38
00
38
6C
C6
C6
FE
C6
C6
ENDCHAR
STARTCHAR char144
ENCODING 144
SWIDTH 450 0
DWIDTH 9 0
BBX 7 11 0 3
BITMAP
18
30
60
00
FE
66
60
7C
60
66
FE
ENDCHAR
STARTCHAR char145
ENCODING 145
SWIDTH 450 0
DWIDTH 9 0
BBX 7 7 0 3
BITMAP
CC
76
36
7E
D8
D8
6E
ENDCHAR
STARTCHAR char146
ENCODING 146
SWIDTH 450 0
DWIDTH 9 0
BBX 7 9 0 3
BITMAP
3E
6C
CC
CC
FE
CC
CC
CC
CE
ENDCHAR
STARTCHAR char147
ENCODING 147
SWIDTH 450 0
DWIDTH 9 0
BBX 7 10 0 3
BITMAP
10
38
6C
00
7C
C6
C6
C6
C6
7C
ENDCHAR
STARTCHAR char148
ENCODING 148
SWIDTH 450 0
DWIDTH 9 0
BBX 7 9 0 3
BITMAP
C6
C6
00
7C
C6
C6
C6
C6
7C
ENDCHAR
STARTCHAR char149
ENCODING 149
SWIDTH 450 0
DWIDTH 9 0
BBX 7 10 0 3
BITMAP
60
30
18
00
7C
C6
C6
C6
C6
7C
ENDCHAR
STARTCHAR char150
ENCODING 150
SWIDTH 450 0
DWIDTH 9 0
BBX 7 10 0 3
BITMAP
30
78
CC
00
CC
CC
CC
CC
CC
76
ENDCHAR
STARTCHAR char151
ENCODING 151
SWIDTH 450 0
DWIDTH 9 0
BBX 7 10 0 3
BITMAP
60
30
18
00
CC
CC
CC
CC
CC
76
ENDCHAR
STARTCHAR char152
ENCODING 152
SWIDTH 450 0
DWIDTH 9 0
BBX 7 12 0 0
BITMAP
C6
C6
00
C6
C6
C6
C6
7E
06
0C
78
78
ENDCHAR
STARTCHAR char153
ENCODING 153
SWIDTH 450 0
DWIDTH 9 0
BBX 7 10 0 3
BITMAP
C6
C6
38
6C
C6
C6
C6
C6
6C
38
ENDCHAR
STARTCHAR char154
ENCODING 154
SWIDTH 450 0
DWIDTH 9 0
BBX 7 10 0 3
BITMAP
C6
C6
00
C6
C6
C6
C6
C6
C6
7C
ENDCHAR
STARTCHAR char155
ENCODING 155
SWIDTH 450 0
DWIDTH 9 0
BBX 6 10 1 3
BITMAP
30
30
78
CC
C0
C0
CC
78
30
30
ENDCHAR
STARTCHAR char156
ENCODING 156
SWIDTH 450 0
DWIDTH 9 0
BBX 7 10 0 3
BITMAP
38
6C
64
60
F0
60
60
60
E6
FC
ENDCHAR
STARTCHAR char157
ENCODING 157
SWIDTH 450 0
DWIDTH 9 0
BBX 6 9 1 3
BITMAP
CC
CC
78
30
FC
30
FC
30
30
ENDCHAR
STARTCHAR char158
ENCODING 158
SWIDTH 450 0
DWIDTH 9 0
BBX 7 10 0 3
BITMAP
F8
CC
CC
F8
C4
CC
DE
CC
CC
C6
ENDCHAR
STARTCHAR char159
ENCODING 159
SWIDTH 450 0
DWIDTH 9 0
BBX 7 13 0 0
BITMAP
0E
00
18
18
18
7E
18
18
18
18
D8
70
70
ENDCHAR
STARTCHAR char160
ENCODING 160
SWIDTH 450 0
DWIDTH 9 0
BBX 7 10 0 3
BITMAP
18
30
60
00
78
0C
7C
CC
CC
76
ENDCHAR
STARTCHAR char161
ENCODING 161
SWIDTH 450 0
DWIDTH 9 0
BBX 4 10 2 3
BITMAP
30
60
C0
00
E0
60
60
60
60
F0
ENDCHAR
STARTCHAR char162
ENCODING 162
SWIDTH 450 0
DWIDTH 9 0
BBX 7 10 0 3
BITMAP
18
30
60
00
7C
C6
C6
C6
C6
7C
ENDCHAR
STARTCHAR char163
ENCODING 163
SWIDTH 450 0
DWIDTH 9 0
BBX 7 10 0 3
BITMAP
18
30
60
00
CC
CC
CC
CC
CC
76
ENDCHAR
STARTCHAR char164
ENCODING 164
SWIDTH 450 0
DWIDTH 9 0
BBX 7 9 0 3
BITMAP
76
DC
00
DC
66
66
66
66
66
ENDCHAR
STARTCHAR char165
ENCODING 165
SWIDTH 450 0
DWIDTH 9 0
BBX 7 11 0 3
BITMAP
76
DC
00
C6
E6
F6
FE
DE
CE
C6
C6
ENDCHAR
STARTCHAR char166
ENCODING 166
SWIDTH 450 0
DWIDTH 9 0
BBX 6 6 1 7
BITMAP
78
D8
D8
7C
00
FC
ENDCHAR
STARTCHAR char167
ENCODING 167
SWIDTH 450 0
DWIDTH 9 0
BBX 5 6 1 7
BITMAP
70
D8
D8
70
00
F8
ENDCHAR
STARTCHAR char168
ENCODING 168
SWIDTH 450 0
DWIDTH 9 0
BBX 7 9 0 3
BITMAP
30
30
00
30
30
60
C6
C6
7C
ENDCHAR
STARTCHAR char169
ENCODING 169
SWIDTH 450 0
DWIDTH 9 0
BBX 7 4 0 4
BITMAP
FE
C0
C0
C0
ENDCHAR
STARTCHAR char170
ENCODING 170
SWIDTH 450 0
DWIDTH 9 0
BBX 7 4 0 4
BITMAP
FE
06
06
06
ENDCHAR
STARTCHAR char171
ENCODING 171
SWIDTH 450 0
DWIDTH 9 0
BBX 7 13 0 0
BITMAP
C0
C0
C6
CC
D8
30
60
DC
86
0C
18
3E
3E
ENDCHAR
STARTCHAR char172
ENCODING 172
SWIDTH 450 0
DWIDTH 9 0
BBX 7 13 0 0
BITMAP
C0
C0
C6
CC
D8
30
66
CE
9E
3E
06
06
06
ENDCHAR
STARTCHAR char173
ENCODING 173
SWIDTH 450 0
DWIDTH 9 0
BBX 4 9 2 3
BITMAP
60
60
00
60
60
F0
F0
F0
60
ENDCHAR
STARTCHAR char174
ENCODING 174
SWIDTH 450 0
DWIDTH 9 0
BBX 7 5 0 5
BITMAP
36
6C
D8
6C
36
ENDCHAR
STARTCHAR char175
ENCODING 175
SWIDTH 450 0
DWIDTH 9 0
BBX 7 5 0 5
BITMAP
D8
6C
36
6C
D8
ENDCHAR
STARTCHAR char176
ENCODING 176
SWIDTH 450 0
DWIDTH 9 0
BBX 9 13 0 0
BITMAP
1C80
3780
6300
6700
6F00
7B00
7300
6300
F600
9C00
0000
FF00
FF00
ENDCHAR
STARTCHAR char177
ENCODING 177
SWIDTH 450 0
DWIDTH 9 0
BBX 8 13 0 0
BITMAP
18
38
78
18
18
18
18
18
18
7E
00
FF
FF
ENDCHAR
STARTCHAR char178
ENCODING 178
SWIDTH 450 0
DWIDTH 9 0
BBX 8 13 0 0
BITMAP
3E
63
63
03
06
0C
18
30
61
7F
00
FF
FF
ENDCHAR
STARTCHAR char179
ENCODING 179
SWIDTH 450 0
DWIDTH 9 0
BBX 8 13 0 0
BITMAP
3E
63
63
03
1E
06
03
63
63
3E
00
FF
FF
ENDCHAR
STARTCHAR char180
ENCODING 180
SWIDTH 450 0
DWIDTH 9 0
BBX 8 13 0 0
BITMAP
03
07
0F
1B
33
63
7F
03
03
03
00
FF
FF
ENDCHAR
STARTCHAR char181
ENCODING 181
SWIDTH 450 0
DWIDTH 9 0
BBX 8 13 0 0
BITMAP
7F
60
60
7E
03
03
03
63
63
3E
00
FF
FF
ENDCHAR
STARTCHAR char182
ENCODING 182
SWIDTH 450 0
DWIDTH 9 0
BBX 8 13 0 0
BITMAP
3E
63
60
60
7E
63
63
63
63
3E
00
FF
FF
ENDCHAR
STARTCHAR char183
ENCODING 183
SWIDTH 450 0
DWIDTH 9 0
BBX 8 13 0 0
BITMAP
7F
43
43
07
06
0C
0C
18
18
18
00
FF
FF
ENDCHAR
STARTCHAR char184
ENCODING 184
SWIDTH 450 0
DWIDTH 9 0
BBX 8 13 0 0
BITMAP
3E
63
63
63
3E
63
63
63
63
3E
00
FF
FF
ENDCHAR
STARTCHAR char185
ENCODING 185
SWIDTH 450 0
DWIDTH 9 0
BBX 8 13 0 0
BITMAP
3E
63
63
63
63
3F
03
03
63
3E
00
FF
FF
ENDCHAR
STARTCHAR char186
ENCODING 186
SWIDTH 450 0
DWIDTH 9 0
BBX 8 5 0 5
BITMAP
FF
FF
FF
FF
FF
ENDCHAR
STARTCHAR char187
ENCODING 187
SWIDTH 450 0
DWIDTH 9 0
BBX 8 11 0 2
BITMAP
60
70
78
FC
FE
FF
FE
FC
78
70
60
ENDCHAR
STARTCHAR char188
ENCODING 188
SWIDTH 450 0
DWIDTH 9 0
BBX 7 8 0 6
BITMAP
36
36
36
36
36
F6
06
FE
ENDCHAR
STARTCHAR char189
ENCODING 189
SWIDTH 450 0
DWIDTH 9 0
BBX 7 8 0 6
BITMAP
36
36
36
36
36
36
36
FE
ENDCHAR
STARTCHAR char190
ENCODING 190
SWIDTH 450 0
DWIDTH 9 0
BBX 5 8 0 6
BITMAP
18
18
18
18
18
F8
18
F8
ENDCHAR
STARTCHAR char191
ENCODING 191
SWIDTH 450 0
DWIDTH 9 0
BBX 5 7 0 0
BITMAP
F8
18
18
18
18
18
18
ENDCHAR
STARTCHAR char192
ENCODING 192
SWIDTH 450 0
DWIDTH 9 0
BBX 4 8 3 6
BITMAP
C0
C0
C0
C0
C0
C0
C0
D0
ENDCHAR
STARTCHAR char193
ENCODING 193
SWIDTH 450 0
DWIDTH 9 0
BBX 8 13 0 0
BITMAP
08
1C
1C
36
36
36
63
7F
63
63
00
FF
FF
ENDCHAR
STARTCHAR char194
ENCODING 194
SWIDTH 450 0
DWIDTH 9 0
BBX 8 13 0 0
BITMAP
7C
66
66
66
7C
66
63
63
63
7E
00
FF
FF
ENDCHAR
STARTCHAR char195
ENCODING 195
SWIDTH 450 0
DWIDTH 9 0
BBX 8 13 0 0
BITMAP
3E
63
63
60
60
60
60
63
63
3E
00
FF
FF
ENDCHAR
STARTCHAR char196
ENCODING 196
SWIDTH 450 0
DWIDTH 9 0
BBX 8 13 0 0
BITMAP
7C
66
63
63
63
63
63
63
66
7C
00
FF
FF
ENDCHAR
STARTCHAR char197
ENCODING 197
SWIDTH 450 0
DWIDTH 9 0
BBX 8 13 0 0
BITMAP
7F
60
60
60
7E
60
60
60
60
7F
00
FF
FF
ENDCHAR
STARTCHAR char198
ENCODING 198
SWIDTH 450 0
DWIDTH 9 0
BBX 8 13 0 0
BITMAP
7F
60
60
60
7E
60
60
60
60
60
00
FF
FF
ENDCHAR
STARTCHAR char199
ENCODING 199
SWIDTH 450 0
DWIDTH 9 0
BBX 8 13 0 0
BITMAP
3E
63
63
60
60
67
63
63
67
3D
00
FF
FF
ENDCHAR
STARTCHAR char200
ENCODING 200
SWIDTH 450 0
DWIDTH 9 0
BBX 8 13 0 0
BITMAP
63
63
63
63
7F
63
63
63
63
63
00
FF
FF
ENDCHAR
STARTCHAR char201
ENCODING 201
SWIDTH 450 0
DWIDTH 9 0
BBX 8 13 0 0
BITMAP
7E
18
18
18
18
18
18
18
18
7E
00
FF
FF
ENDCHAR
STARTCHAR char202
ENCODING 202
SWIDTH 450 0
DWIDTH 9 0
BBX 8 13 0 0
BITMAP
1F
06
06
06
06
06
06
66
66
3C
00
FF
FF
ENDCHAR
STARTCHAR char203
ENCODING 203
SWIDTH 450 0
DWIDTH 9 0
BBX 8 13 0 0
BITMAP
63
66
6C
78
7C
6C
66
66
63
63
00
FF
FF
ENDCHAR
STARTCHAR char204
ENCODING 204
SWIDTH 450 0
DWIDTH 9 0
BBX 8 13 0 0
BITMAP
60
60
60
60
60
60
60
60
60
7F
00
FF
FF
ENDCHAR
STARTCHAR char205
ENCODING 205
SWIDTH 450 0
DWIDTH 9 0
BBX 8 13 0 0
BITMAP
63
63
77
77
7F
6B
6B
63
63
63
00
FF
FF
ENDCHAR
STARTCHAR char206
ENCODING 206
SWIDTH 450 0
DWIDTH 9 0
BBX 8 13 0 0
BITMAP
63
63
73
7B
7B
6F
6F
67
67
63
00
FF
FF
ENDCHAR
STARTCHAR char207
ENCODING 207
SWIDTH 450 0
DWIDTH 9 0
BBX 8 13 0 0
BITMAP
3E
63
63
63
63
63
63
63
63
3E
00
FF
FF
ENDCHAR
STARTCHAR char208
ENCODING 208
SWIDTH 450 0
DWIDTH 9 0
BBX 8 13 0 0
BITMAP
7E
63
63
63
7E
60
60
60
60
60
00
FF
FF
ENDCHAR
STARTCHAR char209
ENCODING 209
SWIDTH 450 0
DWIDTH 9 0
BBX 8 13 0 0
BITMAP
3E
63
63
63
63
6B
6F
66
67
3D
00
FF
FF
ENDCHAR
STARTCHAR char210
ENCODING 210
SWIDTH 450 0
DWIDTH 9 0
BBX 8 13 0 0
BITMAP
7E
63
63
63
7E
6C
66
66
63
63
00
FF
FF
ENDCHAR
STARTCHAR char211
ENCODING 211
SWIDTH 450 0
DWIDTH 9 0
BBX 8 13 0 0
BITMAP
3E
63
63
30
1C
06
03
63
63
3E
00
FF
FF
ENDCHAR
STARTCHAR char212
ENCODING 212
SWIDTH 450 0
DWIDTH 9 0
BBX 8 13 0 0
BITMAP
7F
0C
0C
0C
0C
0C
0C
0C
0C
0C
00
FF
FF
ENDCHAR
STARTCHAR char213
ENCODING 213
SWIDTH 450 0
DWIDTH 9 0
BBX 8 13 0 0
BITMAP
63
63
63
63
63
63
63
63
63
3E
00
FF
FF
ENDCHAR
STARTCHAR char214
ENCODING 214
SWIDTH 450 0
DWIDTH 9 0
BBX 8 13 0 0
BITMAP
63
63
63
36
36
36
1C
1C
08
08
00
FF
FF
ENDCHAR
STARTCHAR char215
ENCODING 215
SWIDTH 450 0
DWIDTH 9 0
BBX 8 13 0 0
BITMAP
63
63
63
6B
6B
7F
77
77
63
63
00
FF
FF
ENDCHAR
STARTCHAR char216
ENCODING 216
SWIDTH 450 0
DWIDTH 9 0
BBX 8 13 0 0
BITMAP
63
63
36
36
1C
1C
36
36
63
63
00
FF
FF
ENDCHAR
STARTCHAR char217
ENCODING 217
SWIDTH 450 0
DWIDTH 9 0
BBX 8 13 0 0
BITMAP
61
61
33
33
1E
0C
0C
0C
0C
0C
00
FF
FF
ENDCHAR
STARTCHAR char218
ENCODING 218
SWIDTH 450 0
DWIDTH 9 0
BBX 8 13 0 0
BITMAP
7F
03
03
06
0C
18
30
60
60
7F
00
FF
FF
ENDCHAR
STARTCHAR char219
ENCODING 219
SWIDTH 450 0
DWIDTH 9 0
BBX 7 9 0 3
BITMAP
7C
C6
C6
DE
DE
DE
DC
C0
7C
ENDCHAR
STARTCHAR char220
ENCODING 220
SWIDTH 450 0
DWIDTH 9 0
BBX 0 0 0 0
BITMAP
ENDCHAR
STARTCHAR char221
ENCODING 221
SWIDTH 450 0
DWIDTH 9 0
BBX 4 14 0 0
BITMAP
F0
F0
F0
F0
F0
F0
F0
F0
F0
F0
F0
F0
F0
F0
ENDCHAR
STARTCHAR char222
ENCODING 222
SWIDTH 450 0
DWIDTH 9 0
BBX 1 14 3 0
BITMAP
80
80
80
80
80
80
80
80
80
80
80
80
80
80
ENDCHAR
STARTCHAR char223
ENCODING 223
SWIDTH 450 0
DWIDTH 9 0
BBX 7 7 1 4
BITMAP
10
10
FE
7C
38
6C
44
ENDCHAR
STARTCHAR char224
ENCODING 224
SWIDTH 450 0
DWIDTH 9 0
BBX 5 9 2 3
BITMAP
20
50
50
88
88
88
50
50
20
ENDCHAR
STARTCHAR char225
ENCODING 225
SWIDTH 450 0
DWIDTH 9 0
BBX 7 7 1 4
BITMAP
38
44
82
92
82
44
38
ENDCHAR
STARTCHAR char226
ENCODING 226
SWIDTH 450 0
DWIDTH 9 0
BBX 9 9 0 3
BITMAP
FF80
9C80
A280
C180
C980
C180
A280
9C80
FF80
ENDCHAR
STARTCHAR char227
ENCODING 227
SWIDTH 450 0
DWIDTH 9 0
BBX 7 9 0 3
BITMAP
40
20
20
F8
28
28
48
08
3E
ENDCHAR
STARTCHAR char228
ENCODING 228
SWIDTH 450 0
DWIDTH 9 0
BBX 9 9 0 3
BITMAP
0800
0800
0800
0000
E380
0000
0800
0800
0800
ENDCHAR
STARTCHAR char229
ENCODING 229
SWIDTH 450 0
DWIDTH 9 0
BBX 9 9 0 3
BITMAP
0800
0800
0800
0800
FF80
0800
0800
0800
0800
ENDCHAR
STARTCHAR char230
ENCODING 230
SWIDTH 450 0
DWIDTH 9 0
BBX 6 8 1 2
BITMAP
CC
CC
CC
CC
CC
F8
C0
C0
ENDCHAR
STARTCHAR char231
ENCODING 231
SWIDTH 450 0
DWIDTH 9 0
BBX 7 7 0 3
BITMAP
76
DC
18
18
18
18
18
ENDCHAR
STARTCHAR char232
ENCODING 232
SWIDTH 450 0
DWIDTH 9 0
BBX 6 9 1 3
BITMAP
FC
30
78
CC
CC
CC
78
30
FC
ENDCHAR
STARTCHAR char233
ENCODING 233
SWIDTH 450 0
DWIDTH 9 0
BBX 7 9 0 3
BITMAP
38
6C
C6
C6
FE
C6
C6
6C
38
ENDCHAR
STARTCHAR char234
ENCODING 234
SWIDTH 450 0
DWIDTH 9 0
BBX 7 9 0 3
BITMAP
38
6C
C6
C6
C6
6C
6C
6C
EE
ENDCHAR
STARTCHAR char235
ENCODING 235
SWIDTH 450 0
DWIDTH 9 0
BBX 6 9 1 3
BITMAP
3C
60
30
18
7C
CC
CC
CC
78
ENDCHAR
STARTCHAR char236
ENCODING 236
SWIDTH 450 0
DWIDTH 9 0
BBX 6 4 1 5
BITMAP
FC
00
00
FC
ENDCHAR
STARTCHAR char237
ENCODING 237
SWIDTH 550 0
DWIDTH 11 0
BBX 9 9 1 3
BITMAP
3E00
4900
8080
8080
C180
8080
8080
4900
3E00
ENDCHAR
STARTCHAR char238
ENCODING 238
SWIDTH 550 0
DWIDTH 11 0
BBX 11 11 0 2
BITMAP
0A00
0A00
0A00
0A00
FBE0
0000
FBE0
0A00
0A00
0A00
0A00
ENDCHAR
STARTCHAR char239
ENCODING 239
SWIDTH 550 0
DWIDTH 11 0
BBX 11 11 0 2
BITMAP
0400
0400
0400
0400
0400
FFE0
0400
0400
0400
0400
0400
ENDCHAR
STARTCHAR char240
ENCODING 240
SWIDTH 550 0
DWIDTH 11 0
BBX 11 11 0 2
BITMAP
0400
0A00
0A00
1100
1100
2080
2080
4040
4040
8020
8020
ENDCHAR
STARTCHAR char241
ENCODING 241
SWIDTH 550 0
DWIDTH 11 0
BBX 11 11 0 2
BITMAP
0400
0A00
0A00
1100
1100
2080
2080
4440
4040
8420
8420
ENDCHAR
STARTCHAR char242
ENCODING 242
SWIDTH 550 0
DWIDTH 11 0
BBX 5 11 3 2
BITMAP
20
A8
70
A8
20
20
20
20
20
20
20
ENDCHAR
STARTCHAR char243
ENCODING 243
SWIDTH 550 0
DWIDTH 11 0
BBX 5 5 3 5
BITMAP
20
A8
70
A8
20
ENDCHAR
STARTCHAR char244
ENCODING 244
SWIDTH 550 0
DWIDTH 11 0
BBX 11 11 0 2
BITMAP
0400
1F00
2080
4040
4040
C060
4040
4040
2080
1F00
0400
ENDCHAR
STARTCHAR char245
ENCODING 245
SWIDTH 550 0
DWIDTH 11 0
BBX 9 9 1 3
BITMAP
3E00
4100
9C80
A280
A280
A280
9C80
4100
3E00
ENDCHAR
STARTCHAR char246
ENCODING 246
SWIDTH 550 0
DWIDTH 11 0
BBX 11 11 0 2
BITMAP
0400
1F00
2080
4E40
5140
D160
5140
4E40
2080
1F00
0400
ENDCHAR
STARTCHAR char247
ENCODING 247
SWIDTH 550 0
DWIDTH 11 0
BBX 9 9 1 3
BITMAP
3E00
4100
8080
8080
8080
8080
8080
4100
3E00
ENDCHAR
STARTCHAR char248
ENCODING 248
SWIDTH 550 0
DWIDTH 11 0
BBX 11 11 0 2
BITMAP
8420
4440
2480
1F00
1100
F1E0
1100
1F00
2480
4440
8420
ENDCHAR
STARTCHAR char249
ENCODING 249
SWIDTH 550 0
DWIDTH 11 0
BBX 9 9 1 3
BITMAP
3E00
4100
9480
9480
9C80
9480
9480
4100
3E00
ENDCHAR
STARTCHAR char250
ENCODING 250
SWIDTH 550 0
DWIDTH 11 0
BBX 9 9 1 3
BITMAP
0800
0800
0800
0800
FF80
0800
0800
0800
0800
ENDCHAR
STARTCHAR char251
ENCODING 251
SWIDTH 550 0
DWIDTH 11 0
BBX 9 9 1 3
BITMAP
8080
4100
2200
1400
0800
1400
2200
4100
8080
ENDCHAR
STARTCHAR char252
ENCODING 252
SWIDTH 550 0
DWIDTH 11 0
BBX 5 5 3 5
BITMAP
70
F8
F8
F8
70
ENDCHAR
STARTCHAR char253
ENCODING 253
SWIDTH 550 0
DWIDTH 11 0
BBX 9 9 1 3
BITMAP
3E00
4100
9C80
BE80
BE80
BE80
9C80
4100
3E00
ENDCHAR
STARTCHAR char254
ENCODING 254
SWIDTH 450 0
DWIDTH 9 0
BBX 5 5 4 5
BITMAP
F8
88
88
88
F8
ENDCHAR
STARTCHAR char255
ENCODING 255
SWIDTH 450 0
DWIDTH 9 0
BBX 0 0 0 0
BITMAP
ENDCHAR
ENDFONT
